<?xml version="1.0" standalone="no"?><!DOCTYPE svg PUBLIC "-//W3C//DTD SVG 1.1//EN" "http://www.w3.org/Graphics/SVG/1.1/DTD/svg11.dtd"><svg t="1751630677392" class="icon" viewBox="0 0 1024 1024" version="1.1" xmlns="http://www.w3.org/2000/svg" p-id="1484" xmlns:xlink="http://www.w3.org/1999/xlink" width="200" height="200"><path d="M720.37884 558.135431l-84.94953-21.231772c35.146886-31.219233 63.560652-74.176538 82.503163-121.555259 28.144441-5.094727 54.538272-27.448686 58.780137-78.799947 4.084759-49.623094-12.231835-70.091779-33.194281-78.283741-0.561093-15.867719-2.581029-30.590808-3.411447-44.505923-9.471255-156.769476-88.271202-225.716624-215.661832-212.070835-16.698137 1.795499-33.037175 2.82791-49.623094 0.134662-66.523225-10.930098-135.964135 40.151839-169.786841 93.410817-43.787723 68.947148-27.067142 161.527548-27.179361 164.557451-19.189392 9.089712-33.48605 29.93994-29.625728 76.757567 4.107203 49.690425 28.929972 72.246377 56.042002 78.238854 19.346498 47.535827 48.298914 90.919563 83.782456 122.408121l-84.253774 21.007334c-115.001689 28.79531-195.574691 131.632495-195.574691 250.15785l0 141.844394c0 40.264057 33.3065 73.794995 73.570557 73.794995l660.743504 0c40.264057 0 73.278789-33.530937 73.278789-73.772551l0-141.844394C915.796425 689.812813 835.358085 586.930741 720.37884 558.135431zM247.960701 979.112534 181.774132 979.112534c-15.50862 0-28.705535-13.376465-28.705535-28.885085l0-141.844394c0-72.717695 37.166822-138.298284 94.892104-176.99128L247.960701 979.112534zM322.249458 283.917899c0-6.598458 0.987524-13.084696 2.917685-19.413829 5.206946-16.877687 11.895179-31.286564 18.51608-43.002193 11.468748-20.266691 30.052159-35.573317 52.136792-42.934862 0.673312-0.224437 1.346624-0.448875 1.997492-0.673312 7.765532-2.670804 16.316594 0.291769 20.782897 7.159551 4.466303 6.867782 3.680772 15.912607-1.907717 21.905084-1.054855 1.122187-2.109711 2.244373-3.18701 3.321673-3.36656 3.478779-4.129647 8.730612-1.885274 13.017365 2.244373 4.286753 7.002445 6.643345 11.760516 5.857814 46.548303-7.675757 128.108829-28.099554 189.447552-80.999433 16.271707-14.004889 40.668044-12.613378 55.234027 3.164566 13.802896 14.992414 22.735502 33.598269 25.787849 53.752741 3.433891 22.511064 5.251834 48.613126 5.251834 78.844835 0 117.448056-84.051781 259.314893-188.460027 259.314893C406.301239 543.232792 322.249458 401.388399 322.249458 283.917899zM528.664472 979.112534l-32.453638 0-154.480215-383.787837 96.485609-24.284119c22.713058 10.907654 47.042065 17.034793 72.470814 17.034793 26.348943 0 51.396149-6.261802 74.625413-17.416337l98.124001 24.867656L528.664472 979.112534zM870.953846 950.227449c0 15.50862-12.92759 28.885085-28.43621 28.885085l-64.772614 0 0-346.755677c56.894864 38.805215 93.18638 103.869597 93.18638 176.003755L870.931402 950.227449z" p-id="1485"></path><path d="M511.719453 764.999319m-25.630743 0a1.142 1.142 0 1 0 51.261487 0 1.142 1.142 0 1 0-51.261487 0Z" p-id="1486"></path><path d="M511.719453 856.435088m-25.630743 0a1.142 1.142 0 1 0 51.261487 0 1.142 1.142 0 1 0-51.261487 0Z" p-id="1487"></path><path d="M587.960815 609.217368 541.794056 622.593833c-0.718199 0.17955-1.413955 0.3591-2.154598 0.471318-7.473763-6.55357-17.169456-10.907654-27.830229-10.907654s-20.356466 4.33164-27.830229 10.907654c-0.718199-0.112219-1.436399-0.291769-2.132155-0.471318l-46.009653-13.398909c-13.780452-3.972541-26.865149 6.418908-26.865149 20.760453L408.972043 682.294163c0 14.386433 13.10714 24.732994 26.93248 20.738009l48.052033-14.004889c7.473763 6.643345 17.169456 10.772992 27.875117 11.087204 10.728104-0.314212 20.446241-4.443859 27.942448-11.087204l48.164251 14.004889c13.780452 3.994985 27.11203-6.351576 27.11203-20.738009l0-52.338786C615.027957 615.591388 601.763711 605.244827 587.960815 609.217368z" p-id="1488"></path></svg>